<svg xmlns="http://www.w3.org/2000/svg" width="14.841" height="13.913" viewBox="0 0 14.841 13.913">
  <path id="cart" d="M8.136,16.378a1.391,1.391,0,1,1-1.391-1.391A1.391,1.391,0,0,1,8.136,16.378Zm9.276,0a1.391,1.391,0,1,1-1.391-1.391A1.391,1.391,0,0,1,17.412,16.378Zm0-6.029V4.784H6.281a.928.928,0,0,0-.928-.928H2.571v.928H4.426l.7,5.972a1.855,1.855,0,0,0,1.158,3.3H17.412v-.928H6.281a.928.928,0,0,1-.928-.928s0-.006,0-.01l12.058-1.846Z" transform="translate(-2.571 -3.856)" fill="#200e32"/>
</svg>
