<svg xmlns="http://www.w3.org/2000/svg" width="14" height="14" viewBox="0 0 14 14">
  <path id="Category" d="M9.856,14a1.783,1.783,0,0,1-1.777-1.792V9.822A1.779,1.779,0,0,1,9.856,8.029h2.366A1.784,1.784,0,0,1,14,9.822v2.386A1.788,1.788,0,0,1,12.222,14ZM1.778,14A1.788,1.788,0,0,1,0,12.208V9.822A1.784,1.784,0,0,1,1.778,8.029H4.144A1.78,1.78,0,0,1,5.922,9.822v2.386A1.783,1.783,0,0,1,4.144,14ZM9.856,5.971A1.779,1.779,0,0,1,8.078,4.179V1.793A1.783,1.783,0,0,1,9.856,0h2.366A1.788,1.788,0,0,1,14,1.793V4.179a1.784,1.784,0,0,1-1.778,1.793Zm-8.077,0A1.784,1.784,0,0,1,0,4.179V1.793A1.788,1.788,0,0,1,1.778,0H4.144A1.784,1.784,0,0,1,5.922,1.793V4.179A1.78,1.78,0,0,1,4.144,5.971Z" fill="#200e32"/>
</svg>
