<svg xmlns="http://www.w3.org/2000/svg" width="11.746" height="8.354" viewBox="0 0 11.746 8.354">
  <g id="etite" transform="translate(1 0.78)">
    <path id="Vector" d="M4.039.573.5,4.113a1.232,1.232,0,0,0-.3.59l-.19,1.35a.635.635,0,0,0,.76.76l1.35-.19a1.189,1.189,0,0,0,.59-.3l3.54-3.54a1.365,1.365,0,0,0,0-2.22A1.361,1.361,0,0,0,4.039.573Z" transform="translate(3.175)" fill="none" stroke="#292d32" stroke-linecap="round" stroke-linejoin="round" stroke-width="1.5"/>
    <path id="Vector-2" data-name="Vector" d="M0,0A3.185,3.185,0,0,0,2.22,2.22" transform="translate(6.705 1.082)" fill="none" stroke="#292d32" stroke-linecap="round" stroke-linejoin="round" stroke-width="1.5"/>
    <path id="Vector-3" data-name="Vector" d="M.495.5H.5" transform="translate(-0.495 6.002)" fill="none" stroke="#292d32" stroke-linecap="round" stroke-linejoin="round" stroke-width="2"/>
  </g>
</svg>
