<svg xmlns="http://www.w3.org/2000/svg" width="13.62" height="14.337" viewBox="0 0 13.62 14.337">
  <path id="Home" d="M4.756,13.458V11.266a1.017,1.017,0,0,1,1.021-1.013h2.06a1.024,1.024,0,0,1,.722.3,1.009,1.009,0,0,1,.3.716v2.192a.87.87,0,0,0,.255.621.883.883,0,0,0,.624.258h1.406a2.48,2.48,0,0,0,1.752-.716,2.444,2.444,0,0,0,.726-1.737V5.639a1.773,1.773,0,0,0-.642-1.364L8.2.485A2.22,2.22,0,0,0,5.366.535L.693,4.276A1.774,1.774,0,0,0,0,5.639v6.238a2.469,2.469,0,0,0,2.478,2.46H3.851a.883.883,0,0,0,.886-.873Z" fill="#200e32"/>
</svg>
