<svg id="MainLogo" xmlns="http://www.w3.org/2000/svg" width="133.313" height="114.147" viewBox="0 0 133.313 114.147">
  <g id="Group_16204" data-name="Group 16204" transform="translate(14.55 74.06)" opacity="0.3">
    <path id="Path_11600" data-name="Path 11600" d="M281.718,351.719h54l2.876-6.878-59.491.622Z" transform="translate(-278.332 -316.45)" fill="#fca939" opacity="0.7"/>
    <path id="Path_11601" data-name="Path 11601" d="M278.536,352.3c0-15.68,13.248-28.391,29.59-28.391s29.589,12.711,29.589,28.391Z" transform="translate(-278.536 -323.908)" fill="#fca939" opacity="0.7"/>
  </g>
  <g id="Group_16205" data-name="Group 16205" transform="translate(0 0)">
    <path id="Path_11602" data-name="Path 11602" d="M353.028,298.353h.022l.585-.039-.042.616a.411.411,0,0,0,.411.438h1.126a.412.412,0,0,0,.412-.411c0-.019-.053-.769-.053-.769l4.2-.285a.33.33,0,0,0,0-.658l-4.281-.292-.428-6.254a.411.411,0,0,0-.82,0l-.42,6.14-.685-.046a.33.33,0,0,0-.352.328v.9a.329.329,0,0,0,.33.33Z" transform="translate(-237.295 -261.816)" fill="#ffcb05"/>
    <path id="Path_11603" data-name="Path 11603" d="M282.524,333.543a35.093,35.093,0,0,1-5.728-10.248,32.618,32.618,0,0,1-1.518-7.96v-.821H373.8a16.411,16.411,0,0,0,5.134,3.631,15.007,15.007,0,0,0,6.29,1.332,15.664,15.664,0,0,0,6.079-1.2,16.624,16.624,0,0,0,5.083-3.293,15.57,15.57,0,0,0,3.484-4.938,14.878,14.878,0,0,0,1.284-6.194,16.133,16.133,0,0,0-1.232-6.323,15.4,15.4,0,0,0-3.407-5.07,16.043,16.043,0,0,0-5.083-3.37,15.784,15.784,0,0,0-6.208-1.227,15.045,15.045,0,0,0-6.106,1.252,15.749,15.749,0,0,0-4.979,3.426,16.218,16.218,0,0,0-3.355,5.067,15.833,15.833,0,0,0-1.231,6.246c0,.594.027,1.168.08,1.725a9.994,9.994,0,0,0,.286,1.621h-9.746v-5.071a24.812,24.812,0,0,0-.68-5.984,9.9,9.9,0,0,0-2.358-4.519,11.513,11.513,0,0,0-4.664-3.007,19.335,19.335,0,0,0-6.235-.915H330.247V272.127H319.983v6.6h2.931V307.2h-9.748V285.088h-9.779v6.6h2.442V307.2H295.19q.314-1.672.5-3.4a33.409,33.409,0,0,0,.184-3.5,17.715,17.715,0,0,0-1.311-7.03,16.144,16.144,0,0,0-3.407-5.147,12.834,12.834,0,0,0-4.533-2.98,15.89,15.89,0,0,0-5.894-1.044,20.358,20.358,0,0,0-6.133.887,27.658,27.658,0,0,0-5.4,2.352l3.039,6.377a14.737,14.737,0,0,1,3.774-1.8,13.9,13.9,0,0,1,3.825-.5,9.036,9.036,0,0,1,6.182,1.986,6.836,6.836,0,0,1,1.966,2.957,10.317,10.317,0,0,1,.6,3.369,32.719,32.719,0,0,1-.237,3.711,31.09,31.09,0,0,1-.655,3.764H268.309a26.966,26.966,0,0,0-.472,5.279s0,15.759,9.778,25.4A44.678,44.678,0,0,1,282.524,333.543ZM377.515,300.4a8.485,8.485,0,0,1,1.728-2.717,8.271,8.271,0,0,1,2.622-1.83,8.125,8.125,0,0,1,3.355-.681,8.948,8.948,0,0,1,3.457.654,8.377,8.377,0,0,1,2.727,1.8,8.006,8.006,0,0,1,1.781,2.717,9.058,9.058,0,0,1,.628,3.4,8.505,8.505,0,0,1-.655,3.37,7.861,7.861,0,0,1-1.835,2.668,8.5,8.5,0,0,1-2.751,1.75,8.99,8.99,0,0,1-3.352.625,8.29,8.29,0,0,1-3.3-.651,8.424,8.424,0,0,1-2.646-1.777,7.99,7.99,0,0,1-1.757-2.667,8.712,8.712,0,0,1-.628-3.319A8.91,8.91,0,0,1,377.515,300.4Zm-47.268-5.436h16.716a5.825,5.825,0,0,1,2.595.576A5.12,5.12,0,0,1,351.42,297a5.752,5.752,0,0,1,1.074,2.066,9.96,9.96,0,0,1,.339,2.745V307.2H330.247Z" transform="translate(-267.837 -268.297)" fill="#ffcb05"/>
    <path id="Path_11604" data-name="Path 11604" d="M279.179,280.791a5.744,5.744,0,1,0-5.758-5.744A5.761,5.761,0,0,0,279.179,280.791Zm0-7.658a1.914,1.914,0,1,1-1.919,1.914A1.918,1.918,0,0,1,279.179,273.133Z" transform="translate(-265.827 -269.303)" fill="#ffcb05"/>
  </g>
  <g id="Group_16206" data-name="Group 16206" transform="translate(79.262 57.931)">
    <path id="Path_11605" data-name="Path 11605" d="M336.138,332.162H343.8a9.989,9.989,0,1,0,0-19.978l-16.614-.168v6.659l16.614.168a3.33,3.33,0,1,1,0,6.659h-7.667a9.989,9.989,0,1,0,0,19.978h16.036v-6.659H336.138a3.33,3.33,0,1,1,0-6.659Z" transform="translate(-326.122 -312.016)" fill="#ffcb05"/>
    <path id="Path_11606" data-name="Path 11606" d="M369.021,312.016h-6.759v11.466a3.377,3.377,0,0,1-6.755,0V312.016h-6.759v12.312a9.279,9.279,0,0,0,9.291,9.266h4.322l.014.943V345.48h6.646V333.595h2.289v-6.743h-2.289Z" transform="translate(-317.978 -312.016)" fill="#ffcb05"/>
  </g>
  <g id="Group_16207" data-name="Group 16207" transform="translate(84.653 107.407)">
    <path id="Path_11607" data-name="Path 11607" d="M332.81,351.124l-.271,1.009H332.5l-.277-1.009-.8-2.629h-1.331v6.739h1.042v-2.719c0-.709-.106-2.109-.175-2.761h.029l.438,1.565.738,2.129h.681l.744-2.129.45-1.565h.031c-.057.652-.175,2.052-.175,2.761v2.719h1.062v-6.739h-1.331Z" transform="translate(-330.086 -348.495)" fill="#ffcb05"/>
    <path id="Path_11608" data-name="Path 11608" d="M337.22,348.495l-2.189,6.739h1.231l.522-1.821h2.248l.515,1.821h1.28l-2.189-6.739Zm-.165,3.971.235-.815c.2-.711.405-1.476.6-2.222h.041c.185.746.4,1.511.6,2.222l.231.815Z" transform="translate(-328.306 -348.495)" fill="#ffcb05"/>
    <path id="Path_11609" data-name="Path 11609" d="M340.442,349.5h2.129v5.731h1.2V349.5H345.9v-1.008h-5.46Z" transform="translate(-326.359 -348.495)" fill="#ffcb05"/>
    <path id="Path_11610" data-name="Path 11610" d="M349.282,351.655v-.041a1.474,1.474,0,0,0,1.169-1.463c0-1.234-1-1.656-2.4-1.656h-2.1v6.739h2.271c1.492,0,2.572-.631,2.572-1.98C350.8,352.343,350.258,351.822,349.282,351.655Zm-2.13-2.2h.821c.873,0,1.3.231,1.3.845s-.386.968-1.331.968h-.794Zm.952,4.827h-.952v-2.1h.952c1.01,0,1.522.292,1.522,1C349.626,353.938,349.094,354.278,348.1,354.278Z" transform="translate(-324.374 -348.495)" fill="#ffcb05"/>
    <path id="Path_11611" data-name="Path 11611" d="M353.083,348.495l-2.189,6.739h1.231l.522-1.821h2.248l.515,1.821h1.28l-2.19-6.739Zm-.165,3.971.235-.815c.2-.711.405-1.476.6-2.222h.041c.185.746.4,1.511.6,2.222l.231.815Z" transform="translate(-322.597 -348.495)" fill="#ffcb05"/>
    <path id="Path_11612" data-name="Path 11612" d="M361.4,348.495h-1.349l-2.406,3.056h-.035v-3.056h-1.216v6.739h1.216v-1.992l.968-1.212,1.7,3.2h1.342l-2.308-4.121Z" transform="translate(-320.618 -348.495)" fill="#ffcb05"/>
    <path id="Path_11613" data-name="Path 11613" d="M365.381,351.2h-2.31v-2.7h-1.208v6.739h1.208v-2.986h2.31v2.986h1.208v-6.739h-1.208Z" transform="translate(-318.65 -348.495)" fill="#ffcb05"/>
  </g>
  <g id="Group_16208" data-name="Group 16208" transform="translate(0 54.279)">
    <path id="Path_11614" data-name="Path 11614" d="M282.568,333.272l1.966,1.3a24.005,24.005,0,0,1,2.068-2.679l-1.764-1.562A26.354,26.354,0,0,0,282.568,333.272Z" transform="translate(-262.535 -301.839)" fill="#fd883a"/>
    <path id="Path_11615" data-name="Path 11615" d="M285.446,330.931l1.616,1.713A23.532,23.532,0,0,1,303.2,326.26v-2.352A25.891,25.891,0,0,0,285.446,330.931Z" transform="translate(-261.499 -304.127)" fill="#fd883a"/>
    <path id="Path_11616" data-name="Path 11616" d="M345.686,353.272a36.747,36.747,0,0,0-29.745-33.647,7.292,7.292,0,1,0-13.27-.042l.018.042c-.22.042-.439.083-.658.136a37,37,0,0,0-28.09,26.488,27.613,27.613,0,0,0-.947,7.024h-5.157v4.847h5.577l4.235,11.067h62.33l4.859-11.07h56.31v-4.846Zm-36.371-38.806a1.914,1.914,0,1,1-1.917,1.911A1.917,1.917,0,0,1,309.316,314.466Zm27.662,49.876H280.851l-2.425-6.221h4.682v0H339.4Zm-59.329-11.07a31.667,31.667,0,0,1,63.173,0Z" transform="translate(-267.837 -309.323)" fill="#fd883a"/>
  </g>
  <line id="Line_37" data-name="Line 37" x1="5.072" y1="11.07" transform="translate(5.575 103.074)" fill="#f2854d"/>
  <path id="Path_11617" data-name="Path 11617" d="M293.65,316.93c-.22.042-.439.083-.658.136h-.042c.226-.065.451-.123.683-.178Z" transform="translate(-258.799 -252.349)" fill="#f2854d"/>
</svg>
