<svg xmlns="http://www.w3.org/2000/svg" width="31.011" height="66.013" viewBox="0 0 31.011 66.013">
  <g id="marker" transform="translate(-171.827 -366.807)">
    <path id="Path_10454" data-name="Path 10454" d="M152.116,9.634a15.506,15.506,0,0,1-27.431,9.91,15.319,15.319,0,0,1-.533-4.038,15.5,15.5,0,0,1,27.431-9.9A15.307,15.307,0,0,1,152.116,9.634Z" transform="translate(47.675 366.807)" fill="#e56353"/>
    <path id="Path_10453" data-name="Path 10453" d="M155.164,15.505a15.507,15.507,0,0,1-30.478,4.038,15.318,15.318,0,0,1-.533-4.038,15.505,15.505,0,0,1,31.011,0Z" transform="translate(47.674 366.807)" fill="#d15241"/>
    <path id="Path_10452" data-name="Path 10452" d="M234.146,215.206v35.677l2.7-4.045V215.206Z" transform="translate(-46.814 181.937)" fill="#d5d6db"/>
    <path id="Path_10451" data-name="Path 10451" d="M215.017,215.206v31.632l2.7,4.045V215.206Z" transform="translate(-30.381 181.937)" fill="#e1e6e9"/>
  </g>
</svg>
