<svg xmlns="http://www.w3.org/2000/svg" width="12" height="14" viewBox="0 0 12 14">
  <path id="Notification" d="M5.635,13.977a2.566,2.566,0,0,1-1.21-.513,1.084,1.084,0,0,1-.491-.821c0-.353.326-.514.628-.583a18.474,18.474,0,0,1,2.856,0c.3.069.628.231.628.583a1.086,1.086,0,0,1-.49.822,2.577,2.577,0,0,1-1.209.512A2.843,2.843,0,0,1,5.986,14,2.61,2.61,0,0,1,5.635,13.977ZM2.657,11.023A3.211,3.211,0,0,1,.61,10.034,2.518,2.518,0,0,1,0,8.369,2.345,2.345,0,0,1,.516,6.752a2.646,2.646,0,0,0,.75-1.995v-.3a3.917,3.917,0,0,1,.906-2.7A5.01,5.01,0,0,1,5.969,0h.064A4.986,4.986,0,0,1,9.891,1.837a3.861,3.861,0,0,1,.844,2.622v.3a2.709,2.709,0,0,0,.75,1.995A2.341,2.341,0,0,1,12,8.369a2.517,2.517,0,0,1-.609,1.665,3.214,3.214,0,0,1-2.047.989C8.235,11.116,7.125,11.2,6,11.2A29.672,29.672,0,0,1,2.657,11.023Z" fill="#200e32"/>
</svg>
