<svg xmlns="http://www.w3.org/2000/svg" width="23.291" height="23.291" viewBox="0 0 23.291 23.291">
  <path id="plus" d="M21.627,11.4H14.141V3.914A1.664,1.664,0,0,0,12.477,2.25H10.814A1.664,1.664,0,0,0,9.15,3.914V11.4H1.664A1.664,1.664,0,0,0,0,13.064v1.664a1.664,1.664,0,0,0,1.664,1.664H9.15v7.486a1.664,1.664,0,0,0,1.664,1.664h1.664a1.664,1.664,0,0,0,1.664-1.664s-1.872-5.615,0-7.486,7.486,0,7.486,0a1.664,1.664,0,0,0,1.664-1.664V13.064A1.664,1.664,0,0,0,21.627,11.4Z" transform="translate(0 -2.25)" fill="gold"/>
</svg>
